<svg width="43" height="43" viewBox="0 0 43 43" fill="none" xmlns="http://www.w3.org/2000/svg">
<path d="M13.2583 29.1682C13.6099 29.5198 14.0868 29.7174 14.5841 29.7174C15.0814 29.7174 15.5583 29.5198 15.9099 29.1682L26.4104 18.6677V25.6327C26.4276 26.1182 26.6325 26.5781 26.982 26.9155C27.3316 27.2529 27.7984 27.4415 28.2843 27.4415C28.7701 27.4415 29.237 27.2529 29.5865 26.9155C29.936 26.5781 30.141 26.1182 30.1581 25.6327L30.1581 14.1422C30.1578 13.6453 29.9603 13.1689 29.6089 12.8175C29.2576 12.4662 28.7811 12.2687 28.2843 12.2683L16.7938 12.2683C16.5421 12.2595 16.2913 12.3014 16.0562 12.3915C15.8211 12.4817 15.6066 12.6183 15.4254 12.7932C15.2443 12.968 15.1002 13.1776 15.0018 13.4094C14.9034 13.6412 14.8526 13.8904 14.8526 14.1422C14.8526 14.394 14.9034 14.6432 15.0018 14.875C15.1002 15.1067 15.2443 15.3163 15.4254 15.4912C15.6066 15.6661 15.8211 15.8027 16.0562 15.8928C16.2913 15.983 16.5421 16.0249 16.7938 16.016L23.7588 16.016L13.2583 26.5165C12.5264 27.2484 12.5264 28.4363 13.2583 29.1682Z" fill="#628E90"/>
</svg>
